<?xml version="1.0" encoding="utf-8" standalone="no"?>
<!DOCTYPE svg PUBLIC "-//W3C//DTD SVG 1.1//EN"
  "http://www.w3.org/Graphics/SVG/1.1/DTD/svg11.dtd">
<svg height="288pt" version="1.1" viewBox="0 0 432 288" width="432pt" xmlns="http://www.w3.org/2000/svg" xmlns:xlink="http://www.w3.org/1999/xlink">
 <metadata>
  <rdf:RDF xmlns:cc="http://creativecommons.org/ns#" xmlns:dc="http://purl.org/dc/elements/1.1/" xmlns:rdf="http://www.w3.org/1999/02/22-rdf-syntax-ns#">
   <cc:Work>
    <dc:type rdf:resource="http://purl.org/dc/dcmitype/StillImage"/>
    <dc:date>2022-03-16T09:54:21.936385</dc:date>
    <dc:format>image/svg+xml</dc:format>
    <dc:creator>
     <cc:Agent>
      <dc:title>Matplotlib v3.4.3, https://matplotlib.org/</dc:title>
     </cc:Agent>
    </dc:creator>
   </cc:Work>
  </rdf:RDF>
 </metadata>
 <defs>
  <style type="text/css">*{stroke-linecap:butt;stroke-linejoin:round;}</style>
 </defs>
 <g id="figure_1">
  <g id="patch_1">
   <path d="M 0 288 
L 432 288 
L 432 0 
L 0 0 
z
" style="fill:none;"/>
  </g>
  <g id="axes_1">
   <g id="patch_2">
    <path d="M 54 252 
L 388.8 252 
L 388.8 34.56 
L 54 34.56 
z
" style="fill:#ffffff;"/>
   </g>
   <g id="matplotlib.axis_1">
    <g id="xtick_1">
     <g id="line2d_1">
      <defs>
       <path d="M 0 0 
L 0 3.5 
" id="m653929896c" style="stroke:#000000;stroke-width:0.8;"/>
      </defs>
      <g>
       <use style="stroke:#000000;stroke-width:0.8;" x="69.218182" xlink:href="#m653929896c" y="252"/>
      </g>
     </g>
     <g id="text_1">
      <!-- 0 -->
      <g transform="translate(66.036932 266.598437)scale(0.1 -0.1)">
       <defs>
        <path d="M 2034 4250 
Q 1547 4250 1301 3770 
Q 1056 3291 1056 2328 
Q 1056 1369 1301 889 
Q 1547 409 2034 409 
Q 2525 409 2770 889 
Q 3016 1369 3016 2328 
Q 3016 3291 2770 3770 
Q 2525 4250 2034 4250 
z
M 2034 4750 
Q 2819 4750 3233 4129 
Q 3647 3509 3647 2328 
Q 3647 1150 3233 529 
Q 2819 -91 2034 -91 
Q 1250 -91 836 529 
Q 422 1150 422 2328 
Q 422 3509 836 4129 
Q 1250 4750 2034 4750 
z
" id="DejaVuSans-30" transform="scale(0.015625)"/>
       </defs>
       <use xlink:href="#DejaVuSans-30"/>
      </g>
     </g>
    </g>
    <g id="xtick_2">
     <g id="line2d_2">
      <g>
       <use style="stroke:#000000;stroke-width:0.8;" x="131.126008" xlink:href="#m653929896c" y="252"/>
      </g>
     </g>
     <g id="text_2">
      <!-- 5000 -->
      <g transform="translate(118.401008 266.598437)scale(0.1 -0.1)">
       <defs>
        <path d="M 691 4666 
L 3169 4666 
L 3169 4134 
L 1269 4134 
L 1269 2991 
Q 1406 3038 1543 3061 
Q 1681 3084 1819 3084 
Q 2600 3084 3056 2656 
Q 3513 2228 3513 1497 
Q 3513 744 3044 326 
Q 2575 -91 1722 -91 
Q 1428 -91 1123 -41 
Q 819 9 494 109 
L 494 744 
Q 775 591 1075 516 
Q 1375 441 1709 441 
Q 2250 441 2565 725 
Q 2881 1009 2881 1497 
Q 2881 1984 2565 2268 
Q 2250 2553 1709 2553 
Q 1456 2553 1204 2497 
Q 953 2441 691 2322 
L 691 4666 
z
" id="DejaVuSans-35" transform="scale(0.015625)"/>
       </defs>
       <use xlink:href="#DejaVuSans-35"/>
       <use x="63.623047" xlink:href="#DejaVuSans-30"/>
       <use x="127.246094" xlink:href="#DejaVuSans-30"/>
       <use x="190.869141" xlink:href="#DejaVuSans-30"/>
      </g>
     </g>
    </g>
    <g id="xtick_3">
     <g id="line2d_3">
      <g>
       <use style="stroke:#000000;stroke-width:0.8;" x="193.033834" xlink:href="#m653929896c" y="252"/>
      </g>
     </g>
     <g id="text_3">
      <!-- 10000 -->
      <g transform="translate(177.127584 266.598437)scale(0.1 -0.1)">
       <defs>
        <path d="M 794 531 
L 1825 531 
L 1825 4091 
L 703 3866 
L 703 4441 
L 1819 4666 
L 2450 4666 
L 2450 531 
L 3481 531 
L 3481 0 
L 794 0 
L 794 531 
z
" id="DejaVuSans-31" transform="scale(0.015625)"/>
       </defs>
       <use xlink:href="#DejaVuSans-31"/>
       <use x="63.623047" xlink:href="#DejaVuSans-30"/>
       <use x="127.246094" xlink:href="#DejaVuSans-30"/>
       <use x="190.869141" xlink:href="#DejaVuSans-30"/>
       <use x="254.492188" xlink:href="#DejaVuSans-30"/>
      </g>
     </g>
    </g>
    <g id="xtick_4">
     <g id="line2d_4">
      <g>
       <use style="stroke:#000000;stroke-width:0.8;" x="254.94166" xlink:href="#m653929896c" y="252"/>
      </g>
     </g>
     <g id="text_4">
      <!-- 15000 -->
      <g transform="translate(239.03541 266.598437)scale(0.1 -0.1)">
       <use xlink:href="#DejaVuSans-31"/>
       <use x="63.623047" xlink:href="#DejaVuSans-35"/>
       <use x="127.246094" xlink:href="#DejaVuSans-30"/>
       <use x="190.869141" xlink:href="#DejaVuSans-30"/>
       <use x="254.492188" xlink:href="#DejaVuSans-30"/>
      </g>
     </g>
    </g>
    <g id="xtick_5">
     <g id="line2d_5">
      <g>
       <use style="stroke:#000000;stroke-width:0.8;" x="316.849486" xlink:href="#m653929896c" y="252"/>
      </g>
     </g>
     <g id="text_5">
      <!-- 20000 -->
      <g transform="translate(300.943236 266.598437)scale(0.1 -0.1)">
       <defs>
        <path d="M 1228 531 
L 3431 531 
L 3431 0 
L 469 0 
L 469 531 
Q 828 903 1448 1529 
Q 2069 2156 2228 2338 
Q 2531 2678 2651 2914 
Q 2772 3150 2772 3378 
Q 2772 3750 2511 3984 
Q 2250 4219 1831 4219 
Q 1534 4219 1204 4116 
Q 875 4013 500 3803 
L 500 4441 
Q 881 4594 1212 4672 
Q 1544 4750 1819 4750 
Q 2544 4750 2975 4387 
Q 3406 4025 3406 3419 
Q 3406 3131 3298 2873 
Q 3191 2616 2906 2266 
Q 2828 2175 2409 1742 
Q 1991 1309 1228 531 
z
" id="DejaVuSans-32" transform="scale(0.015625)"/>
       </defs>
       <use xlink:href="#DejaVuSans-32"/>
       <use x="63.623047" xlink:href="#DejaVuSans-30"/>
       <use x="127.246094" xlink:href="#DejaVuSans-30"/>
       <use x="190.869141" xlink:href="#DejaVuSans-30"/>
       <use x="254.492188" xlink:href="#DejaVuSans-30"/>
      </g>
     </g>
    </g>
    <g id="xtick_6">
     <g id="line2d_6">
      <g>
       <use style="stroke:#000000;stroke-width:0.8;" x="378.757312" xlink:href="#m653929896c" y="252"/>
      </g>
     </g>
     <g id="text_6">
      <!-- 25000 -->
      <g transform="translate(362.851062 266.598437)scale(0.1 -0.1)">
       <use xlink:href="#DejaVuSans-32"/>
       <use x="63.623047" xlink:href="#DejaVuSans-35"/>
       <use x="127.246094" xlink:href="#DejaVuSans-30"/>
       <use x="190.869141" xlink:href="#DejaVuSans-30"/>
       <use x="254.492188" xlink:href="#DejaVuSans-30"/>
      </g>
     </g>
    </g>
   </g>
   <g id="matplotlib.axis_2">
    <g id="ytick_1">
     <g id="line2d_7">
      <defs>
       <path d="M 0 0 
L -3.5 0 
" id="m6d935920ec" style="stroke:#000000;stroke-width:0.8;"/>
      </defs>
      <g>
       <use style="stroke:#000000;stroke-width:0.8;" x="54" xlink:href="#m6d935920ec" y="242.116364"/>
      </g>
     </g>
     <g id="text_7">
      <!-- 0.00 -->
      <g transform="translate(24.734375 245.915582)scale(0.1 -0.1)">
       <defs>
        <path d="M 684 794 
L 1344 794 
L 1344 0 
L 684 0 
L 684 794 
z
" id="DejaVuSans-2e" transform="scale(0.015625)"/>
       </defs>
       <use xlink:href="#DejaVuSans-30"/>
       <use x="63.623047" xlink:href="#DejaVuSans-2e"/>
       <use x="95.410156" xlink:href="#DejaVuSans-30"/>
       <use x="159.033203" xlink:href="#DejaVuSans-30"/>
      </g>
     </g>
    </g>
    <g id="ytick_2">
     <g id="line2d_8">
      <g>
       <use style="stroke:#000000;stroke-width:0.8;" x="54" xlink:href="#m6d935920ec" y="217.737039"/>
      </g>
     </g>
     <g id="text_8">
      <!-- 0.05 -->
      <g transform="translate(24.734375 221.536258)scale(0.1 -0.1)">
       <use xlink:href="#DejaVuSans-30"/>
       <use x="63.623047" xlink:href="#DejaVuSans-2e"/>
       <use x="95.410156" xlink:href="#DejaVuSans-30"/>
       <use x="159.033203" xlink:href="#DejaVuSans-35"/>
      </g>
     </g>
    </g>
    <g id="ytick_3">
     <g id="line2d_9">
      <g>
       <use style="stroke:#000000;stroke-width:0.8;" x="54" xlink:href="#m6d935920ec" y="193.357715"/>
      </g>
     </g>
     <g id="text_9">
      <!-- 0.10 -->
      <g transform="translate(24.734375 197.156934)scale(0.1 -0.1)">
       <use xlink:href="#DejaVuSans-30"/>
       <use x="63.623047" xlink:href="#DejaVuSans-2e"/>
       <use x="95.410156" xlink:href="#DejaVuSans-31"/>
       <use x="159.033203" xlink:href="#DejaVuSans-30"/>
      </g>
     </g>
    </g>
    <g id="ytick_4">
     <g id="line2d_10">
      <g>
       <use style="stroke:#000000;stroke-width:0.8;" x="54" xlink:href="#m6d935920ec" y="168.978391"/>
      </g>
     </g>
     <g id="text_10">
      <!-- 0.15 -->
      <g transform="translate(24.734375 172.77761)scale(0.1 -0.1)">
       <use xlink:href="#DejaVuSans-30"/>
       <use x="63.623047" xlink:href="#DejaVuSans-2e"/>
       <use x="95.410156" xlink:href="#DejaVuSans-31"/>
       <use x="159.033203" xlink:href="#DejaVuSans-35"/>
      </g>
     </g>
    </g>
    <g id="ytick_5">
     <g id="line2d_11">
      <g>
       <use style="stroke:#000000;stroke-width:0.8;" x="54" xlink:href="#m6d935920ec" y="144.599066"/>
      </g>
     </g>
     <g id="text_11">
      <!-- 0.20 -->
      <g transform="translate(24.734375 148.398285)scale(0.1 -0.1)">
       <use xlink:href="#DejaVuSans-30"/>
       <use x="63.623047" xlink:href="#DejaVuSans-2e"/>
       <use x="95.410156" xlink:href="#DejaVuSans-32"/>
       <use x="159.033203" xlink:href="#DejaVuSans-30"/>
      </g>
     </g>
    </g>
    <g id="ytick_6">
     <g id="line2d_12">
      <g>
       <use style="stroke:#000000;stroke-width:0.8;" x="54" xlink:href="#m6d935920ec" y="120.219742"/>
      </g>
     </g>
     <g id="text_12">
      <!-- 0.25 -->
      <g transform="translate(24.734375 124.018961)scale(0.1 -0.1)">
       <use xlink:href="#DejaVuSans-30"/>
       <use x="63.623047" xlink:href="#DejaVuSans-2e"/>
       <use x="95.410156" xlink:href="#DejaVuSans-32"/>
       <use x="159.033203" xlink:href="#DejaVuSans-35"/>
      </g>
     </g>
    </g>
    <g id="ytick_7">
     <g id="line2d_13">
      <g>
       <use style="stroke:#000000;stroke-width:0.8;" x="54" xlink:href="#m6d935920ec" y="95.840418"/>
      </g>
     </g>
     <g id="text_13">
      <!-- 0.30 -->
      <g transform="translate(24.734375 99.639637)scale(0.1 -0.1)">
       <defs>
        <path d="M 2597 2516 
Q 3050 2419 3304 2112 
Q 3559 1806 3559 1356 
Q 3559 666 3084 287 
Q 2609 -91 1734 -91 
Q 1441 -91 1130 -33 
Q 819 25 488 141 
L 488 750 
Q 750 597 1062 519 
Q 1375 441 1716 441 
Q 2309 441 2620 675 
Q 2931 909 2931 1356 
Q 2931 1769 2642 2001 
Q 2353 2234 1838 2234 
L 1294 2234 
L 1294 2753 
L 1863 2753 
Q 2328 2753 2575 2939 
Q 2822 3125 2822 3475 
Q 2822 3834 2567 4026 
Q 2313 4219 1838 4219 
Q 1578 4219 1281 4162 
Q 984 4106 628 3988 
L 628 4550 
Q 988 4650 1302 4700 
Q 1616 4750 1894 4750 
Q 2613 4750 3031 4423 
Q 3450 4097 3450 3541 
Q 3450 3153 3228 2886 
Q 3006 2619 2597 2516 
z
" id="DejaVuSans-33" transform="scale(0.015625)"/>
       </defs>
       <use xlink:href="#DejaVuSans-30"/>
       <use x="63.623047" xlink:href="#DejaVuSans-2e"/>
       <use x="95.410156" xlink:href="#DejaVuSans-33"/>
       <use x="159.033203" xlink:href="#DejaVuSans-30"/>
      </g>
     </g>
    </g>
    <g id="ytick_8">
     <g id="line2d_14">
      <g>
       <use style="stroke:#000000;stroke-width:0.8;" x="54" xlink:href="#m6d935920ec" y="71.461094"/>
      </g>
     </g>
     <g id="text_14">
      <!-- 0.35 -->
      <g transform="translate(24.734375 75.260312)scale(0.1 -0.1)">
       <use xlink:href="#DejaVuSans-30"/>
       <use x="63.623047" xlink:href="#DejaVuSans-2e"/>
       <use x="95.410156" xlink:href="#DejaVuSans-33"/>
       <use x="159.033203" xlink:href="#DejaVuSans-35"/>
      </g>
     </g>
    </g>
    <g id="ytick_9">
     <g id="line2d_15">
      <g>
       <use style="stroke:#000000;stroke-width:0.8;" x="54" xlink:href="#m6d935920ec" y="47.081769"/>
      </g>
     </g>
     <g id="text_15">
      <!-- 0.40 -->
      <g transform="translate(24.734375 50.880988)scale(0.1 -0.1)">
       <defs>
        <path d="M 2419 4116 
L 825 1625 
L 2419 1625 
L 2419 4116 
z
M 2253 4666 
L 3047 4666 
L 3047 1625 
L 3713 1625 
L 3713 1100 
L 3047 1100 
L 3047 0 
L 2419 0 
L 2419 1100 
L 313 1100 
L 313 1709 
L 2253 4666 
z
" id="DejaVuSans-34" transform="scale(0.015625)"/>
       </defs>
       <use xlink:href="#DejaVuSans-30"/>
       <use x="63.623047" xlink:href="#DejaVuSans-2e"/>
       <use x="95.410156" xlink:href="#DejaVuSans-34"/>
       <use x="159.033203" xlink:href="#DejaVuSans-30"/>
      </g>
     </g>
    </g>
   </g>
   <g id="line2d_16">
    <path clip-path="url(#p14c9107d9b)" d="M 69.218182 242.116364 
L 95.095653 242.116364 
L 95.219469 240.805744 
L 95.578534 240.701654 
L 95.801402 240.694271 
L 95.813784 240.694271 
L 95.9376 240.522001 
L 96.024271 240.421048 
L 96.148086 240.31758 
L 96.383336 240.239908 
L 96.519533 240.104759 
L 99.614924 239.997291 
L 99.73874 239.953671 
L 103.911328 239.852511 
L 104.059906 239.837658 
L 105.013287 239.732865 
L 105.347589 239.635028 
L 107.105771 239.52487 
L 107.266732 239.492601 
L 107.898192 239.446797 
L 110.510702 239.342169 
L 110.721188 239.330088 
L 111.724095 239.225927 
L 111.959345 239.199835 
L 112.652713 239.093686 
L 113.048923 238.997481 
L 114.225171 238.887746 
L 115.067118 238.764282 
L 116.230985 238.653804 
L 120.750256 238.220036 
L 120.93598 238.186225 
L 124.130424 237.842646 
L 125.950514 237.732001 
L 127.622025 237.540265 
L 128.067761 237.464723 
L 129.194484 237.358976 
L 129.417352 237.309305 
L 130.370732 237.198316 
L 131.720323 237.023981 
L 135.249069 236.631849 
L 135.558608 236.580093 
L 136.450081 236.466597 
L 138.047303 236.305854 
L 139.322604 236.198111 
L 139.60738 236.153172 
L 140.436945 236.073863 
L 146.305807 235.502355 
L 147.5192 235.392752 
L 148.22495 235.320165 
L 149.586922 235.211765 
L 150.04504 235.180429 
L 151.654643 235.069758 
L 152.075616 235.025451 
L 153.388062 234.914738 
L 153.821417 234.881058 
L 155.331968 234.770934 
L 160.792238 234.318044 
L 162.141829 234.209284 
L 162.810433 234.147041 
L 164.333366 234.036333 
L 167.800204 233.742919 
L 168.184033 233.705554 
L 171.304187 233.476941 
L 173.85479 233.295597 
L 174.709118 233.233594 
L 176.293958 233.122626 
L 179.612217 232.84536 
L 180.355111 232.782784 
L 184.230541 232.493397 
L 184.676278 232.466677 
L 186.298263 232.356776 
L 188.898391 232.176277 
L 190.842297 232.018006 
L 191.399467 231.970505 
L 193.009071 231.859399 
L 196.104462 231.670457 
L 197.181658 231.575967 
L 200.425629 231.375561 
L 201.30472 231.315022 
L 202.864797 231.2062 
L 203.28577 231.176892 
L 209.3775 230.760065 
L 210.033723 230.710596 
L 211.742379 230.604689 
L 212.002392 230.582801 
L 215.70448 230.309368 
L 216.274032 230.280065 
L 218.341753 230.095336 
L 218.812253 230.045271 
L 220.706632 229.923033 
L 221.610487 229.860196 
L 223.641063 229.714966 
L 224.322049 229.651847 
L 229.262294 229.28296 
L 229.70803 229.241692 
L 231.070002 229.131722 
L 235.440695 228.777428 
L 238.957059 228.519868 
L 239.997111 228.43933 
L 242.461042 228.246344 
L 243.290607 228.180877 
L 245.271658 228.006805 
L 245.630723 227.969081 
L 250.806217 227.452214 
L 253.257767 227.237769 
L 256.117909 226.997364 
L 257.417973 226.88687 
L 257.876091 226.836831 
L 269.106171 225.709919 
L 269.316657 225.678255 
L 270.468143 225.532494 
L 270.752919 225.487236 
L 272.312996 225.305735 
L 272.647298 225.265029 
L 274.541678 225.085463 
L 274.975033 225.044809 
L 275.928413 224.934788 
L 279.184765 224.558755 
L 280.113382 224.440754 
L 284.273588 223.980906 
L 285.152679 223.87456 
L 285.536508 223.817009 
L 292.891158 222.846162 
L 294.01788 222.656273 
L 304.77746 220.932884 
L 305.470828 220.78649 
L 306.065143 220.661864 
L 306.659458 220.513185 
L 308.81385 220.115528 
L 309.383402 220.004776 
L 311.438742 219.53223 
L 317.654288 218.245184 
L 317.926682 218.167876 
L 318.706721 217.953844 
L 319.102931 217.85884 
L 320.081075 217.676791 
L 320.44014 217.590409 
L 320.91064 217.480582 
L 325.442293 216.353504 
L 325.628016 216.293451 
L 326.110897 216.185264 
L 326.92808 216.033916 
L 332.673127 214.406792 
L 333.156008 214.224307 
L 334.109388 213.936152 
L 335.372308 213.515998 
L 335.619939 213.431729 
L 336.139965 213.295068 
L 338.15816 212.633989 
L 338.343884 212.511384 
L 338.764857 212.362361 
L 339.000107 212.267794 
L 339.173448 212.158136 
L 339.58204 212.047419 
L 339.916342 211.941572 
L 340.2135 211.856592 
L 341.984064 211.189266 
L 343.346036 210.72278 
L 343.655575 210.558361 
L 347.048124 208.952342 
L 347.295755 208.834231 
L 347.518623 208.737722 
L 347.716728 208.653805 
L 348.026268 208.543105 
L 348.298662 208.395557 
L 348.608201 208.245697 
L 348.744398 208.15355 
L 351.319764 206.745871 
L 351.455961 206.646012 
L 352.39696 205.93309 
L 352.508394 205.83182 
L 352.817933 205.634246 
L 353.102709 205.493631 
L 353.907511 205.027269 
L 354.117998 204.877012 
L 354.947563 204.302069 
L 355.182812 204.079788 
L 355.294246 203.979012 
L 355.913325 203.352245 
L 356.173337 203.176889 
L 358.005809 201.201235 
L 358.142006 200.95962 
L 358.203914 200.888001 
L 358.377256 200.627181 
L 361.014529 197.523278 
L 361.163108 197.359965 
L 361.80695 196.671673 
L 362.029818 196.159796 
L 362.339357 195.716918 
L 362.549844 195.312383 
L 362.636515 195.232363 
L 362.83462 195.019756 
L 362.871764 194.912785 
L 363.144159 194.516118 
L 363.243211 194.286722 
L 363.453698 193.736949 
L 363.874671 193.147173 
L 363.986105 192.978169 
L 364.122302 192.718738 
L 364.208973 192.597706 
L 364.530894 192.06109 
L 364.617565 191.940515 
L 364.741381 191.589895 
L 364.97663 191.164276 
L 365.570945 189.927512 
L 365.84334 189.203347 
L 366.115734 188.730417 
L 366.214787 188.680396 
L 366.412892 188.135467 
L 366.462418 188.087159 
L 366.660523 187.477671 
L 366.722431 187.426627 
L 366.87101 187.048479 
L 366.957681 186.955662 
L 367.26722 186.185536 
L 367.452943 185.540688 
L 367.490088 185.465416 
L 367.626285 185.037799 
L 367.688193 184.985126 
L 367.985351 183.685526 
L 368.022495 183.592385 
L 368.85206 181.054767 
L 369.013021 180.452022 
L 369.173981 179.944927 
L 369.310178 179.591286 
L 369.557809 178.277171 
L 369.966401 175.993391 
L 370.015927 175.810461 
L 370.535953 171.078782 
L 370.709295 169.361843 
L 370.758821 168.877262 
L 371.130268 166.152342 
L 371.241702 165.302374 
L 371.600768 161.765437 
L 371.613149 161.736074 
L 371.798873 158.813835 
L 371.811254 158.781194 
L 371.959833 156.771372 
L 371.984596 156.708963 
L 372.739872 141.433031 
L 372.876069 134.939108 
L 372.888451 134.939108 
L 373.259897 116.21185 
L 373.420858 94.539764 
L 373.581818 44.443636 
L 373.581818 44.443636 
" style="fill:none;stroke:#1f77b4;stroke-linecap:square;stroke-width:1.5;"/>
   </g>
   <g id="patch_3">
    <path d="M 54 252 
L 54 34.56 
" style="fill:none;stroke:#000000;stroke-linecap:square;stroke-linejoin:miter;stroke-width:0.8;"/>
   </g>
   <g id="patch_4">
    <path d="M 388.8 252 
L 388.8 34.56 
" style="fill:none;stroke:#000000;stroke-linecap:square;stroke-linejoin:miter;stroke-width:0.8;"/>
   </g>
   <g id="patch_5">
    <path d="M 54 252 
L 388.8 252 
" style="fill:none;stroke:#000000;stroke-linecap:square;stroke-linejoin:miter;stroke-width:0.8;"/>
   </g>
   <g id="patch_6">
    <path d="M 54 34.56 
L 388.8 34.56 
" style="fill:none;stroke:#000000;stroke-linecap:square;stroke-linejoin:miter;stroke-width:0.8;"/>
   </g>
  </g>
 </g>
 <defs>
  <clipPath id="p14c9107d9b">
   <rect height="217.44" width="334.8" x="54" y="34.56"/>
  </clipPath>
 </defs>
</svg>
